<svg xmlns="http://www.w3.org/2000/svg" version="1.1" xmlns:xlink="http://www.w3.org/1999/xlink" xmlns:svgjs="http://svgjs.dev/svgjs" width="308.75" height="304.91" viewBox="0 0 2000 2250"><g transform="matrix(1,0,0,1,0.00014687500004129106,0)"><svg viewBox="0 0 320 360" data-background-color="#000000" preserveAspectRatio="xMidYMid meet" height="2250" width="2000" xmlns="http://www.w3.org/2000/svg" xmlns:xlink="http://www.w3.org/1999/xlink"><g id="tight-bounds" transform="matrix(1,0,0,1,0.000023499999997511622,0)"><svg viewBox="0 0 320 360" height="360" width="320"><g><svg></svg></g><g><svg viewBox="0 0 320 360" height="360" width="320"><g><path transform="translate(-74.99272,-51.79039) scale(4.65793,4.65793)" d="M20.6 59.9l0.8 1-0.4-1.3c-0.1-0.6-0.8 0.1-0.4 0.3M21.5 59.3c0.3 0.5 0.6 1 0.6 1.5 0 0.7 0.6 1 1.1 1.2-0.7-0.8-1.1-3-1.7-2.7M59.9 16.9c1.7 0 3.3-0.2 5.1 0.2 4.4 1.1 8.1 3.3 10.6 6.4l7 11.2c0.3 2.8 0.9 5.9 0.8 9.3 0.7 0 0.6-1 1.4-1.2-0.8 2-1.2 4.5-1.4 7.4-0.5-1.6 0-4 0.1-5.3-0.7 1.1-1.1 0.3-1.1-0.2 0.1-0.8-0.3-0.7-0.6-1-1.1-1-1.8-2.1-2.6-3.8 0.5-1.3 0.6-3.2-1-4.2-0.5-0.3-1.1-0.8-1.4-1.6-0.4-1.1-1.1-2.4-0.9-4.1 0.1-0.5-1.5 1.1-2.4 0.4-3.9-2.7-7.8-5.8-12.5-8.4-2.5 0-4.3-0.9-5.2-2-0.8-1-0.2-2.3 1-2.4 0.7 0 1.5-0.2 2.1 0.2 0.1-0.4 0.5-0.9 1-0.9M50 14.6l0.2 0.1c1 0.2 1.5 1.6 2.6 1.1 0 0.7 0.1 1.4-0.1 1.9-0.3 0.8-1.2 0.8-1.9 0.8-6.7-0.4-10.6 2.4-14.7 4.8-1.1 0.7-2.3 1.2-3.2 2.1-4.3 4-9 7.7-10.1 15.1l-0.9 8.2c-0.1 0.9-1.1 1.8-0.9 2.9l0.7 4.9c-0.7-0.7-1.1 0.2-0.9 0.6 0.1 0.3 0.5 1.3 1.1 0.4 0.8 1.5 1.6 4.4 2.7 5.7 3.4 4 7.8 7.6 11.4 11.2 0.9-0.2 1.6-0.2 1.8-0.8 0.3 0.6-0.3 1.2-0.8 1.3 1.6 1 3.4 1.9 5.8 2.1 3.1 0.2 6 0.7 8.7 1.4 1.4-0.4 2.8-0.6 4.3-0.7 0.5 0 0.8-0.8 1.4-1l0.1-1c0.6 0.9 0.5-0.3 0.1-0.9 0.7 0.6 0.9 1.1 1.2 1.5 0-0.3 0.8-1.4 0.8-0.1l0.2-1.3c0.3-0.2 0.4 1.1 0.7 0.2 0.3-0.9 0.9-0.2 1.5-0.5-0.2 0.4-0.1 1.2 0.6 0.7l0.8-0.7c0.5 1.2 1.3 0.7 1.7 0.5 4.4-2.8 8.8-6.1 13-9.4l-0.1 1.3 0.5-1.6c0.5 0.5 0.9 0.1 1.1-0.2 0.6-1 1.4-2 2.7-2.9-1.6 4.3-3.5 7.7-5.9 10.5l-1 1.2c0 0.7-0.2 1.6-1 1.7-0.4 0.1-1.2-0.2-1.8 0.4-0.3 0.4 0.7 1.2-0.1 0.6-0.7-0.5-1.4 0-2.2 0.2-0.6 0.2 0.4 0.8 0.6 1.2 0.2 0.4 0.4 0.8 0.3 1.3l-1.1-1.2c-1.3 0.7-2.1 2-3.2 3-0.5 0.4-0.3 1.1-0.3 1.7-0.7 0-1.5-0.2-1.9 0.2-0.3 0.4-0.2 1-0.2 1.6-1-0.1-1.1-1.6-2-1.3-0.9 0.2-1.9 0.3-2.7 0.8 0.6 1.2-1 0.5-0.8 0.7-1.5-0.9-2.8-1.6-4.4-1-3.4-1.1-7.6-0.6-10.7-0.2 0-0.5 0.1-1-0.1-1.1-0.2 0.5-0.8 0.3-0.7 0.3-1.9-1.3-3.8-2.1-5.8-3.2-1.8 0.2-3.5-0.7-4-1.2-1.4-1.3-3-0.6-4.3-0.9-2.8-0.7-3.8-3.6-4.1-5.6-0.2-1-1-1.4-1.3-1.3-1.3-4.2-3.3-8-4.9-11.9-0.4-1-0.3-2-0.3-3.1 0.5 0.2 1 0.1 0.9-0.6-0.5-3.3-1.7-5.8-3-8.2 0.7-3.4 0.8-7.4 2.4-10.4 1.4-2.7 4-4.1 5.8-6.4 0.6-0.8 0.6-1.9 1.2-2.6 2-2 4-4.1 6.2-5.9 1-0.8 2.2 0 3.7-0.3 0.5-1.8 2.5-3.4 4.4-2.9 0.8 0.2 2.4-1.9 2.9-2.1 0.8-0.3 0.4 0.8 0.4 1.5 1.9-1.5 4.5-2.3 6.9-3.2" fill="#505050" fill-rule="nonzero" stroke="none" stroke-width="1" stroke-linecap="butt" stroke-linejoin="miter" stroke-miterlimit="10" stroke-dasharray="" stroke-dashoffset="0" font-family="none" font-weight="none" font-size="none" text-anchor="none" style="mix-blend-mode: normal" data-fill-palette-color="tertiary"></path></g><g transform="matrix(1,0,0,1,99.60952052662097,90)"><svg viewBox="0 0 120.78095894675806 180" height="180" width="120.78095894675806"><g><svg viewBox="0 0 120.78095894675806 180" height="180" width="120.78095894675806"><g><svg viewBox="0 0 186.3050847457627 277.6506789370662" height="180" width="120.78095894675806"><g><svg viewBox="0 0 186.3050847457627 180" height="180" width="186.3050847457627"><g id="textblocktransform"><svg viewBox="0 0 186.3050847457627 180" height="180" width="186.3050847457627" id="textblock"><g><svg viewBox="0 0 186.3050847457627 180" height="180" width="186.3050847457627"><g transform="matrix(1,0,0,1,0,0)"><svg width="186.3050847457627" viewBox="0.85 -36.95 45.8 44.25" height="180" data-palette-color="#505050"><path d="M23.8-36.95L23.8-36.95Q25.7-36.95 27.75-36.25 29.8-35.55 31.35-34.45L31.35-34.45Q30.85-31.9 30.43-29.85 30-27.8 29.65-26.13 29.3-24.45 28.98-23.08 28.65-21.7 28.35-20.5L28.35-20.5Q27.15-16 25.88-12.38 24.6-8.75 23.18-5.85 21.75-2.95 20.18-0.7 18.6 1.55 16.8 3.25L16.8 3.25Q15.05 4.9 13.3 5.95 11.55 7 10.05 7.3L10.05 7.3Q8.05 7.3 6.35 6.85 4.65 6.4 3.43 5.63 2.2 4.85 1.53 3.78 0.85 2.7 0.85 1.4L0.85 1.4Q0.85 0 1.55-2.13 2.25-4.25 3.7-7.15L3.7-7.15Q4.3-7.1 5.1-6.85 5.9-6.6 6.7-6.25 7.5-5.9 8.15-5.48 8.8-5.05 9.1-4.65L9.1-4.65Q7.5-3 6.5-1.03 5.5 0.95 5.5 2.4L5.5 2.4Q5.5 3.25 5.83 3.93 6.15 4.6 6.95 5.15L6.95 5.15Q10 4 12.9 0.88 15.8-2.25 18.05-6.9L18.05-6.9Q19.4-9.65 20.5-13.2 21.6-16.75 22.38-20.33 23.15-23.9 23.58-27.18 24-30.45 24-32.7L24-32.7Q24-33.05 23.98-33.68 23.95-34.3 23.93-34.98 23.9-35.65 23.85-36.2 23.8-36.75 23.8-36.95ZM29.95-3.35L29.95-3.35Q29.95-3.8 30.02-4.48 30.1-5.15 30.3-6.28 30.5-7.4 30.82-9 31.15-10.6 31.65-12.85L31.65-12.85Q31.75-13.35 32.1-14.45 32.45-15.55 33.02-16.78 33.6-18 34.42-19.15 35.25-20.3 36.4-20.85L36.4-20.85Q37.25-20.65 38.65-19.83 40.05-19 41.05-17.55L41.05-17.55Q39.9-16.25 39.12-14.95 38.35-13.65 37.72-12.25 37.1-10.85 36.57-9.35 36.05-7.85 35.4-6.2L35.4-6.2Q34.85-4.8 34.4-3.33 33.95-1.85 33.9-0.75L33.9-0.75Q33.9 0.15 33.87 0.53 33.85 0.9 33.6 0.9L33.6 0.9Q33.4 0.9 32.8 0.65 32.2 0.4 31.57-0.13 30.95-0.65 30.45-1.45 29.95-2.25 29.95-3.35ZM39.5-25.05L39.5-25.05Q39.5-25.35 39.65-25.95L39.65-25.95Q39.4-26.2 39.22-26.7 39.05-27.2 39.05-27.6L39.05-27.6Q39.05-28.05 39.17-28.83 39.3-29.6 39.5-30.5 39.7-31.4 40-32.38 40.3-33.35 40.6-34.15L40.6-34.15Q41.2-34.15 42.07-33.83 42.95-33.5 43.85-32.98 44.75-32.45 45.5-31.83 46.25-31.2 46.65-30.65L46.65-30.65Q46.1-30.1 45.2-29.13 44.3-28.15 43.45-27.08 42.6-26 41.9-25.05 41.2-24.1 41-23.7L41-23.7Q40.4-23.8 39.95-24.23 39.5-24.65 39.5-25.05Z" opacity="1" transform="matrix(1,0,0,1,0,0)" fill="#505050" class="wordmark-text-0" data-fill-palette-color="primary" id="text-0"></path></svg></g></svg></g></svg></g></svg></g><g transform="matrix(1,0,0,1,57.460214237288135,206.26632)"><svg viewBox="0 0 71.38465627118644 71.38435893706618" height="71.38435893706618" width="71.38465627118644"><g><svg xmlns="http://www.w3.org/2000/svg" xmlns:xlink="http://www.w3.org/1999/xlink" version="1.0" x="0" y="0" viewBox="4.667731951646829 4.685959745359883 90.30503348557724 90.30465734357294" enable-background="new 0 0 100 100" xml:space="preserve" height="71.38435893706618" width="71.38465627118644" class="icon-icon-0" data-fill-palette-color="accent" id="icon-0"><path d="M17.504 35.743c-1.334 8.611 0.522 17.134 5.093 23.382 3.514 4.801 8.413 7.905 13.796 8.739 5.677 0.88 11.253-0.429 15.703-3.685 1.248-0.912 2.36-1.946 3.326-3.076-2.222 0.978-4.814 1.267-7.626 0.831-11.717-1.816-19.673-13.464-17.735-25.964 0.934-6.03 4.384-11.497 9.713-15.397 6.768-4.952 15.953-6.97 25.201-5.537 7.474 1.158 17.67 5.964 25.56 15.213 0 0-22.835-39.421-56.115-20.356C23.689 16.04 18.653 28.323 17.504 35.743z" fill="#ff5d5d" data-fill-palette-color="accent"></path><path d="M82.544 65.256c1.659-8.555 0.125-17.141-4.207-23.557-3.331-4.931-8.109-8.217-13.457-9.253-5.639-1.094-11.261 0.004-15.83 3.091-1.282 0.863-2.431 1.854-3.44 2.947 2.257-0.894 4.859-1.084 7.652-0.543 11.64 2.257 19.151 14.196 16.744 26.616-1.161 5.989-4.815 11.324-10.288 15.019-6.949 4.692-16.205 6.364-25.393 4.582C26.902 82.719 16.894 77.532 9.358 67.992c0 0 21.331 40.255 55.307 22.457C75.621 84.712 81.115 72.628 82.544 65.256z" fill="#ff5d5d" data-fill-palette-color="accent"></path><path d="M35.726 82.88c8.611 1.334 17.133-0.522 23.381-5.094 4.801-3.514 7.905-8.413 8.74-13.796 0.879-5.676-0.429-11.253-3.686-15.702-0.912-1.248-1.946-2.36-3.076-3.327 0.979 2.222 1.267 4.815 0.831 7.626-1.816 11.717-13.463 19.673-25.965 17.736-6.029-0.934-11.497-4.385-15.395-9.713-4.952-6.768-6.971-15.954-5.538-25.202 1.158-7.474 5.964-17.67 15.213-25.559 0 0-39.421 22.835-20.356 56.115C16.022 76.695 28.305 81.73 35.726 82.88z" fill="#ff5d5d" data-fill-palette-color="accent"></path><path d="M90.432 35.718c-5.738-10.955-17.822-16.45-25.194-17.879-8.554-1.659-17.141-0.125-23.557 4.208-4.931 3.331-8.217 8.108-9.254 13.456-1.094 5.64 0.004 11.261 3.092 15.83 0.863 1.282 1.854 2.431 2.946 3.441-0.894-2.257-1.084-4.859-0.542-7.652 2.257-11.64 14.196-19.151 26.615-16.744 5.99 1.161 11.324 4.816 15.019 10.289 4.693 6.949 6.363 16.204 4.583 25.392-1.44 7.423-6.626 17.431-16.167 24.966C67.973 91.025 108.228 69.694 90.432 35.718z" fill="#ff5d5d" data-fill-palette-color="accent"></path></svg></g></svg></g><g></g></svg></g></svg></g></svg></g></svg></g><defs></defs></svg><rect width="320" height="360" fill="none" stroke="none" visibility="hidden"></rect></g></svg></g></svg>